<?xml version="1.0" encoding="utf-8"?>
<!-- Generator: Adobe Illustrator 25.0.0, SVG Export Plug-In . SVG Version: 6.00 Build 0)  -->
<svg version="1.1" id="レイヤー_1" xmlns="http://www.w3.org/2000/svg" xmlns:xlink="http://www.w3.org/1999/xlink" x="0px"
	 y="0px" viewBox="0 0 96 96" style="enable-background:new 0 0 96 96;" xml:space="preserve">
<style type="text/css">
	.st0{fill:#005BAC;}
	.st1{fill:#FFFFFF;}
</style>
<g>
	<circle class="st0" cx="48" cy="48" r="48"/>
	<g>
		<g>
			<g>
				<g>
					<g>
						<g>
							<path class="st1" d="M78.9,45.8C78.9,45.7,78.9,45.7,78.9,45.8c0-0.2-0.1-0.2-0.2-0.2h-1.4H66.6H48c-1.7,0-3,1.3-3,2.9
								c0,1.6,1.3,2.9,3,2.9l0,0h18.2c-2.2,5.7-9.5,10-18.2,10c-10.4,0-18.9-6-18.9-13.5c0-7.4,8.5-13.5,18.9-13.5
								c5.7,0,10.8,1.8,14.3,4.7l0,0c0,0,0.1,0,0.1,0H75c0.1,0,0.2-0.1,0.2-0.2c0-0.1,0-0.1,0-0.2c0,0,0,0,0,0
								c-5.4-5.7-15.5-9.5-27.1-9.5c-17.2,0-31.1,8.4-31.1,18.7c0,10.3,13.9,18.7,31.1,18.7c17.1,0,31.1-8.4,31.1-18.7
								C79.1,47.2,79,46.5,78.9,45.8z"/>
						</g>
					</g>
				</g>
			</g>
		</g>
	</g>
</g>
<g>
</g>
<g>
</g>
<g>
</g>
<g>
</g>
<g>
</g>
<g>
</g>
<g>
</g>
<g>
</g>
<g>
</g>
<g>
</g>
<g>
</g>
<g>
</g>
<g>
</g>
<g>
</g>
<g>
</g>
</svg>
